<svg width="799" height="226" viewBox="0 0 799 226" fill="none" xmlns="http://www.w3.org/2000/svg">
<path d="M734.677 80.0446C732.733 80.0446 730.843 80.4461 729.169 81.393L676.219 111.971C672.793 113.946 670.71 117.674 670.71 121.641V182.687C670.71 186.651 672.793 190.374 676.219 192.354L690.047 200.337C696.766 203.648 699.243 203.596 702.301 203.596C712.247 203.596 717.927 197.56 717.927 187.071V126.812C717.927 125.96 717.19 125.351 716.354 125.351H709.721C708.871 125.351 708.147 125.96 708.147 126.812V187.071C708.147 191.72 703.304 196.396 695.444 192.466L681.054 184.035C680.544 183.759 680.154 183.27 680.154 182.687V121.64C680.154 121.062 680.54 120.473 681.054 120.179L733.891 89.7149C734.13 89.5754 734.401 89.5019 734.678 89.5019C734.954 89.5019 735.226 89.5754 735.465 89.7149L788.304 120.18C788.807 120.484 789.204 121.045 789.204 121.643V182.688C789.204 183.271 788.91 183.868 788.416 184.149L735.465 214.615C735.012 214.885 734.387 214.885 733.891 214.615L720.288 206.521C720.081 206.409 719.849 206.35 719.614 206.35C719.378 206.35 719.147 206.409 718.94 206.521C715.185 208.649 714.479 208.896 710.957 210.118C710.09 210.421 708.772 210.891 711.407 212.368L729.169 222.821C730.844 223.787 732.745 224.292 734.679 224.284C736.612 224.296 738.513 223.791 740.187 222.823L793.138 192.355C796.565 190.363 798.646 186.652 798.646 182.688V121.641C798.646 117.676 796.565 113.954 793.138 111.974L740.187 81.3961C738.527 80.4477 736.624 80.0461 734.679 80.0461L734.677 80.0446Z" fill="white"/>
<path d="M748.843 123.665C733.764 123.665 724.785 130.082 724.785 140.754C724.785 152.329 733.697 155.51 748.169 156.941C765.482 158.637 766.83 161.179 766.83 164.587C766.83 170.498 762.118 173.018 750.98 173.018C736.985 173.018 733.91 169.524 732.88 162.563C732.758 161.816 732.182 161.213 731.418 161.213H724.56C723.716 161.213 722.986 161.941 722.986 162.788C722.986 171.699 727.833 182.237 750.98 182.237C767.735 182.237 777.399 175.66 777.399 164.137C777.399 152.715 769.593 149.648 753.339 147.499C736.918 145.326 735.352 144.262 735.352 140.416C735.352 137.241 736.68 132.995 748.843 132.995C759.708 132.995 763.724 135.338 765.369 142.665C765.513 143.352 766.119 143.901 766.83 143.901H773.689C774.111 143.901 774.521 143.641 774.813 143.338C775.1 143.015 775.304 142.651 775.263 142.215C774.2 129.599 765.788 123.665 748.843 123.665Z" fill="white"/>
<path d="M423.381 0.000725863C422.789 0.00111846 422.208 0.155671 421.694 0.449163C421.183 0.748024 420.759 1.17479 420.463 1.68742C420.168 2.20004 420.011 2.78084 420.008 3.3726V89.3757C420.008 90.2195 419.616 90.9757 418.884 91.3992C418.526 91.6079 418.119 91.7179 417.704 91.7179C417.289 91.7179 416.882 91.6079 416.523 91.3992L402.47 83.3054C401.445 82.7123 400.282 82.4 399.098 82.4C397.913 82.4 396.75 82.7123 395.725 83.3054L339.627 115.682C337.53 116.893 336.255 119.219 336.255 121.641V186.396C336.255 188.815 337.531 191.03 339.627 192.241L395.725 224.619C396.75 225.214 397.913 225.527 399.098 225.527C400.282 225.527 401.446 225.214 402.47 224.619L458.569 192.241C459.596 191.65 460.449 190.798 461.041 189.772C461.633 188.746 461.944 187.581 461.942 186.396V24.9585C461.941 23.7457 461.617 22.5551 461.005 21.5081C460.393 20.4611 459.514 19.5953 458.458 18.9992L425.067 0.336663C424.544 0.0444759 423.963 -0.00708664 423.381 0.000725863ZM62.5063 80.832C61.4375 80.8742 60.4313 81.0617 59.4719 81.6179L3.3719 113.996C2.34427 114.586 1.49107 115.438 0.898884 116.465C0.306697 117.491 -0.00340947 118.656 2.82741e-05 119.841L0.112528 206.746C0.112528 207.954 0.735966 209.077 1.79847 209.668C2.30785 209.974 2.89092 210.136 3.48518 210.136C4.07945 210.136 4.66251 209.974 5.1719 209.668L38.4485 190.557C40.5563 189.304 41.9328 187.126 41.9328 184.71V144.126C41.9328 141.704 43.2063 139.482 45.3063 138.279L59.4703 130.073C60.4944 129.477 61.6592 129.166 62.8438 129.173C64 129.173 65.1875 129.462 66.2157 130.073L80.3813 138.279C81.4099 138.869 82.2639 139.72 82.8564 140.747C83.449 141.774 83.7589 142.94 83.7547 144.126V184.709C83.7547 187.124 85.1453 189.318 87.2391 190.555L120.516 209.668C121.025 209.974 121.608 210.136 122.202 210.136C122.797 210.136 123.38 209.974 123.889 209.668C124.402 209.371 124.828 208.945 125.124 208.432C125.42 207.919 125.576 207.337 125.577 206.744L125.686 119.841C125.693 118.656 125.384 117.489 124.791 116.462C124.199 115.435 123.344 114.584 122.314 113.996L66.2157 81.6179C65.2672 81.0617 64.2578 80.8757 63.1813 80.832H62.5063ZM566.606 81.6179C565.434 81.6179 564.286 81.9148 563.234 82.5179L507.136 114.896C506.109 115.487 505.256 116.339 504.663 117.365C504.071 118.392 503.76 119.556 503.763 120.741V185.496C503.763 187.932 505.134 190.138 507.247 191.343L562.897 223.046C564.952 224.218 567.461 224.307 569.53 223.155L603.256 204.382C604.327 203.788 605.05 202.679 605.055 201.46C605.06 200.867 604.907 200.282 604.611 199.768C604.314 199.254 603.885 198.829 603.369 198.537L546.933 166.159C545.877 165.555 545.134 164.335 545.134 163.123V142.888C545.134 141.677 545.884 140.568 546.933 139.965L564.47 129.846C564.983 129.549 565.565 129.393 566.157 129.393C566.749 129.393 567.331 129.549 567.844 129.846L585.38 139.965C585.893 140.26 586.32 140.686 586.616 141.199C586.913 141.712 587.068 142.294 587.067 142.887V158.851C587.066 159.443 587.221 160.025 587.517 160.539C587.813 161.052 588.239 161.477 588.753 161.773C589.805 162.38 591.077 162.382 592.125 161.773L625.741 142.215C626.766 141.621 627.618 140.769 628.21 139.743C628.802 138.717 629.114 137.553 629.114 136.368V120.743C629.114 118.329 627.833 116.109 625.741 114.896L569.98 82.5179C568.955 81.925 567.79 81.6134 566.606 81.6179ZM398.872 129.96C399.166 129.96 399.509 130.032 399.772 130.184L418.997 141.313C419.519 141.615 419.897 142.173 419.897 142.774V165.034C419.897 165.638 419.522 166.194 418.997 166.496L399.772 177.626C399.515 177.772 399.225 177.849 398.929 177.849C398.633 177.849 398.343 177.772 398.086 177.626L378.863 166.496C378.339 166.193 377.963 165.638 377.963 165.034V142.774C377.963 142.171 378.341 141.618 378.863 141.313L398.086 130.185C398.322 130.038 398.595 129.961 398.873 129.962L398.872 129.96Z" fill="white"/>
<path d="M231.026 81.2805C229.858 81.2805 228.701 81.5774 227.654 82.1805L171.556 114.446C169.458 115.654 168.183 117.985 168.183 120.404V185.159C168.183 187.581 169.459 189.793 171.556 191.006L227.654 223.382C228.679 223.977 229.842 224.291 231.027 224.291C232.212 224.291 233.375 223.977 234.4 223.382L290.498 191.006C291.525 190.414 292.378 189.562 292.97 188.535C293.562 187.509 293.873 186.344 293.87 185.159V120.404C293.87 117.982 292.595 115.654 290.498 114.446L234.4 82.1805C233.374 81.5883 232.211 81.2778 231.026 81.2805ZM566.494 139.066C566.27 139.066 566.022 139.066 565.82 139.179L555.028 145.474C554.827 145.586 554.658 145.749 554.54 145.946C554.421 146.144 554.357 146.369 554.353 146.599V158.965C554.353 159.431 554.622 159.857 555.028 160.09L565.82 166.273C566.225 166.507 566.656 166.507 567.056 166.273L577.848 160.088C578.049 159.976 578.216 159.813 578.335 159.616C578.453 159.419 578.518 159.195 578.523 158.965V146.598C578.518 146.368 578.453 146.143 578.335 145.946C578.216 145.749 578.049 145.587 577.848 145.474L567.056 139.177C566.856 139.06 566.719 139.066 566.494 139.066Z" fill="white"/>
</svg>
