<svg width="348" height="136" viewBox="0 0 348 136" fill="none" xmlns="http://www.w3.org/2000/svg">
<g clip-path="url(#clip0_506_1208)">
<path d="M211.914 91.1743H221.125V57.5821H211.914V91.1743ZM211.522 48.8981C211.522 45.9136 213.193 44.4219 216.536 44.4219C219.876 44.4219 221.549 45.9136 221.549 48.8981C221.549 50.3208 221.131 51.4274 220.296 52.2189C219.46 53.0104 218.207 53.4051 216.536 53.4051C213.193 53.4051 211.522 51.9027 211.522 48.8981Z" fill="white"/>
<path fill-rule="evenodd" clip-rule="evenodd" d="M174.645 71.7936C177.616 69.2897 179.1 65.675 179.1 60.9474C179.1 56.4001 177.707 52.9795 174.918 50.6857C172.129 48.3941 168.058 47.2461 162.702 47.2461H148.599V91.1742H157.96V75.5494H161.977C167.453 75.5494 171.676 74.2985 174.645 71.7936ZM161.041 67.9179H157.96V54.8787H162.218C164.776 54.8787 166.652 55.3985 167.851 56.4404C169.049 57.4823 169.648 59.0949 169.648 61.2784C169.648 63.4406 168.933 65.0883 167.503 66.2204C166.073 67.3524 163.92 67.9179 161.041 67.9179Z" fill="white"/>
<path d="M207.027 57.2214C206.202 57.041 205.165 56.9508 203.916 56.9508C201.822 56.9508 199.884 57.5269 198.104 58.6781C196.33 59.8207 194.871 61.3855 193.859 63.2306H193.407L192.048 57.5821H185.071V91.1743H194.283V74.0779C194.283 71.3735 195.103 69.2696 196.743 67.7673C198.385 66.265 200.675 65.5138 203.615 65.5138C204.682 65.5138 205.587 65.6146 206.333 65.8141L207.027 57.2214ZM249.943 89.0715C252.35 87.2678 253.553 84.6451 253.553 81.1991C253.553 79.5366 253.262 78.1043 252.678 76.9022C252.094 75.7001 251.187 74.6392 249.959 73.7172C248.732 72.7963 246.799 71.8053 244.16 70.7433C241.201 69.5614 239.284 68.6691 238.408 68.0686C237.533 67.4681 237.094 66.7573 237.094 65.935C237.094 64.473 238.453 63.742 241.171 63.742C242.701 63.742 244.201 63.9723 245.67 64.4317C247.14 64.8942 248.721 65.4841 250.413 66.2056L253.191 59.5958C249.345 57.8335 245.389 56.9519 241.322 56.9519C237.053 56.9519 233.758 57.7677 231.433 59.4006C229.105 61.0334 227.943 63.341 227.943 66.3255C227.943 68.0686 228.22 69.5359 228.775 70.7274C229.327 71.9199 230.213 72.9767 231.433 73.8976C232.649 74.8195 234.559 75.8211 237.154 76.9022C238.966 77.664 240.416 78.3292 241.504 78.9C242.591 79.4719 243.356 79.9822 243.8 80.4331C244.243 80.884 244.463 81.4697 244.463 82.1911C244.463 84.1136 242.792 85.0748 239.449 85.0748C237.819 85.0748 235.931 84.8043 233.788 84.2642C231.642 83.7231 229.715 83.0526 228.004 82.2505V89.8226C229.568 90.4797 231.198 90.968 232.866 91.2793C234.598 91.6103 236.692 91.7759 239.148 91.7759C243.939 91.7759 247.538 90.8751 249.943 89.0715ZM290.044 91.1743H280.832V71.5539C280.832 69.1307 280.424 67.3122 279.61 66.1006C278.793 64.8889 277.51 64.2821 275.758 64.2821C273.404 64.2821 271.692 65.1436 270.625 66.8666C269.557 68.5896 269.024 71.4234 269.024 75.3702V91.1743H259.813V57.5821H266.85L268.088 61.879H268.602C269.507 60.3363 270.817 59.129 272.527 58.2579C274.239 57.3869 276.202 56.9508 278.417 56.9508C283.47 56.9508 286.892 58.5942 288.685 61.879H289.5C290.406 60.3162 291.74 59.1046 293.502 58.2431C295.264 57.3816 297.251 56.9508 299.466 56.9508C303.291 56.9508 306.186 57.928 308.149 59.8801C310.112 61.8334 311.093 64.9632 311.093 69.2696V91.1743H301.852V71.5539C301.852 69.1307 301.443 67.3122 300.63 66.1006C299.813 64.8889 298.53 64.2821 296.778 64.2821C294.523 64.2821 292.838 65.0841 291.719 66.6862C290.602 68.2893 290.044 70.8324 290.044 74.3177V91.1743Z" fill="white"/>
<path fill-rule="evenodd" clip-rule="evenodd" d="M338.834 86.6068L340.616 91.1743H347.048V68.789C347.048 64.7828 345.84 61.7983 343.425 59.8355C341.008 57.8728 337.535 56.8903 333.005 56.8903C328.275 56.8903 323.965 57.9025 320.08 59.9257L323.129 66.1154C326.773 64.4921 329.945 63.6815 332.643 63.6815C336.146 63.6815 337.898 65.3844 337.898 68.789V70.2616L332.039 70.442C326.985 70.6224 323.206 71.5592 320.698 73.2514C318.192 74.9447 316.939 77.5738 316.939 81.1386C316.939 84.5443 317.87 87.1681 319.732 89.011C321.595 90.8539 324.146 91.7748 327.389 91.7748C330.026 91.7748 332.165 91.3992 333.805 90.648C335.446 89.8969 337.041 88.5505 338.592 86.6068H338.834ZM334.334 75.7298L337.898 75.6099V78.3737C337.898 80.3981 337.258 82.0203 335.979 83.2415C334.702 84.4637 332.994 85.0748 330.861 85.0748C327.881 85.0748 326.391 83.7825 326.391 81.1991C326.391 79.3955 327.045 78.0544 328.355 77.1727C329.663 76.2921 331.656 75.8105 334.334 75.7298ZM101.576 107.915L40.2817 125.952C38.4091 126.503 36.6144 124.892 37.0079 123.013L58.9049 18.6776C59.3144 16.7276 62.0252 16.4178 62.8804 18.2246L103.424 103.882C104.189 105.498 103.316 107.404 101.576 107.915ZM112.087 103.661L65.1433 4.4798V4.47768C64.56 3.25636 63.6554 2.21486 62.5254 1.4636C61.3953 0.712338 60.082 0.279329 58.7247 0.210486C55.8679 0.0449758 53.3086 1.41574 51.8647 3.7488L0.951455 85.7931C0.177985 87.0324 -0.224398 88.4654 -0.208533 89.9242C-0.192668 91.3829 0.240787 92.8069 1.04103 94.0293L25.9282 132.385C27.4115 134.675 29.9815 136 32.6528 136C33.4099 136 34.1713 135.894 34.9199 135.673L107.161 114.416C108.248 114.099 109.255 113.553 110.112 112.816C110.969 112.079 111.657 111.167 112.13 110.142C112.597 109.123 112.835 108.016 112.827 106.896C112.82 105.777 112.567 104.673 112.087 103.661Z" fill="white"/>
</g>
<defs>
<clipPath id="clip0_506_1208">
<rect width="348" height="136" fill="white"/>
</clipPath>
</defs>
</svg>
